<?xml version="1.0" encoding="utf-8"?>
<!-- Svg Vector Icons : http://www.onlinewebfonts.com/icon -->
<!DOCTYPE svg PUBLIC "-//W3C//DTD SVG 1.1//EN" "http://www.w3.org/Graphics/SVG/1.1/DTD/svg11.dtd">
<svg version="1.1" xmlns="http://www.w3.org/2000/svg" xmlns:xlink="http://www.w3.org/1999/xlink" x="0px" y="0px" viewBox="0 0 256 256" enable-background="new 0 0 256 256" xml:space="preserve" style="filter: invert(21%) sepia(64%) saturate(1117%) hue-rotate(241deg) brightness(86%) contrast(98%)">
<metadata> Svg Vector Icons : http://www.onlinewebfonts.com/icon </metadata>
<g><g><g><path fill="#000000" d="M114,10.8c-1.5,0.3-2.8,0.6-3,0.7c-0.1,0.2-0.4,3.1-0.6,6.5l-0.4,6.2l-1.8,0.4c-1,0.2-1.9,0.3-2,0.2s-7.1-11-7.3-11.4c-0.1-0.1-1.9,0.5-4,1.2L90.9,16l0.4,4.3c0.2,2.3,0.6,5.3,0.7,6.5c0.4,2.1,0.2,2.3-1.5,2.9c-1.9,0.6-2,0.6-6.6-4.5l-4.7-5.2L76,21.9c-1.8,1-3.4,2.1-3.6,2.3c-0.2,0.2,0.4,3,1.4,6.2l1.9,5.9l-1.3,1c-0.7,0.6-1.5,1.1-1.8,1.1s-2.8-1.8-5.6-4s-5.4-4-5.6-4c-0.2,0-1.8,1.2-3.5,2.5l-3.1,2.5l2.9,5.8l2.8,5.8l-1.2,1.3l-1.3,1.3l-6.4-3.2l-6.4-3.2L43,45.8c-3.5,4.1-3.6,3.8,0.5,9c2.7,3.4,3.6,5.1,3.3,5.9c-0.7,2.4-1.7,2.4-8.3,0.4c-3.6-1.1-6.7-1.9-6.9-1.6c-0.2,0.2-1.2,1.8-2.3,3.6l-1.9,3.2l4.6,4.3c2.5,2.3,4.6,4.5,4.6,4.8c0,0.3-0.4,1.2-0.9,1.9c-0.9,1.2-1,1.3-7.5,0.4c-3.6-0.4-6.9-0.6-7.1-0.3c-0.2,0.2-1,2-1.7,3.9l-1.2,3.4l5.4,3.6c5.3,3.5,5.4,3.6,4.9,5.4c-0.6,1.7-0.7,1.7-7.6,2.2l-7,0.4l-0.7,3.4c-0.4,1.9-0.7,3.8-0.7,4.1c0,0.4,2.6,1.8,5.7,3.1c3.1,1.3,5.8,2.5,5.9,2.5c0.1,0.1,0.1,1-0.2,2c-0.4,1.7-0.7,1.9-6.1,3.2c-3.2,0.7-6.2,1.4-6.7,1.6c-0.9,0.2-1.1,1-1.1,4.5v4.2l6.2,1.4l6.2,1.4v2c0,2-0.2,2.1-6.2,4.7l-6.2,2.7l0.4,3.4c0.2,1.9,0.6,3.8,0.7,4.1c0.2,0.5,2.6,0.9,6.5,1.2c3.5,0.2,6.3,0.4,6.4,0.6c0.1,0.1,0.3,0.9,0.6,1.8c0.4,1.6,0.1,1.9-5.5,5.5c-3.3,2.1-5.8,4.1-5.7,4.5c0.1,0.4,0.7,2.2,1.4,4l1.2,3.3l2.5-0.3c1.4-0.2,4.3-0.6,6.5-0.8l4.1-0.4l0.4,1.7c0.4,1.7,0.1,2.2-4.5,6.6l-5,4.8l1.7,2.9c0.9,1.6,1.9,3.2,2.2,3.6c0.4,0.5,2.1,0.2,6.2-1c3.2-1,5.9-1.8,6.2-1.8s0.9,0.7,1.5,1.5c1,1.5,0.9,1.6-3.1,6.7c-2.2,2.9-4.1,5.6-4.1,6.1c0.1,0.4,1.2,2,2.5,3.5l2.5,2.8l5.7-2.8l5.7-2.8l1.3,1.2l1.2,1.3l-3.2,6.4l-3.2,6.4l2.8,2.5c1.5,1.4,3.1,2.5,3.6,2.5c0.5,0,3-1.6,5.5-3.6c4.4-3.5,4.7-3.6,6.1-2.7c1.8,1.2,1.8,1.5-0.5,8.5c-1,3.2-1.7,6.1-1.5,6.4c0.1,0.2,1.8,1.2,3.6,2.3l3.4,1.8l4.3-4.6c4.1-4.4,4.3-4.6,6-3.8l1.7,0.7l-0.5,4.5c-0.3,2.4-0.5,5.7-0.6,7.2c0,2.7,0,2.7,3.1,3.8c1.7,0.6,3.4,1.1,3.8,1.1c0.4,0.1,2.2-2.2,4-5.1c1.7-2.8,3.3-5.1,3.3-5.3c0.1-0.1,1,0.2,2,0.6c1.9,0.7,2,0.7,2,4.4c0,2.1,0.2,5.3,0.4,7l0.4,3.1l4,0.7c2.2,0.4,4.1,0.7,4.1,0.6c0.1-0.1,1.2-2.8,2.5-5.9c2.3-5.6,2.4-5.7,4.3-5.6c1.9,0.2,1.9,0.2,3.5,7l1.6,6.8h4.3h4.3l1.5-6.4l1.5-6.4l1.9,0.2c1.8,0.2,2.1,0.6,4.5,6.2c1.4,3.3,2.7,6.2,2.9,6.4c0.2,0.2,2.2,0.1,4.4-0.4l4.1-0.7V239c0-4.4,0.2-6,1-6.7c2-2,3.1-1.2,7,4.9l3.8,5.8l3.5-1.3c1.9-0.7,3.7-1.4,4-1.7c0.2-0.2,0.1-3.1-0.4-6.4l-0.7-6.1l1.7-0.9c1.7-0.8,1.7-0.7,6.5,4.3l4.9,5.1l3.5-1.9c1.9-1,3.5-2.3,3.5-2.7c0-0.4-0.8-3.3-1.8-6.4l-1.8-5.5l1.5-1c0.8-0.5,1.6-0.9,1.8-0.9s2.7,1.8,5.7,4c2.9,2.2,5.5,4,5.7,4c0.2,0,1.7-1.2,3.4-2.7l3-2.7l-2.8-5.6c-1.6-3.1-2.9-5.7-2.9-5.9s0.7-0.8,1.5-1.4c1.4-0.9,1.8-0.8,7.5,2.2l6,3.2l2.7-3c1.5-1.7,2.7-3.3,2.7-3.5c0-0.2-1.7-2.7-3.8-5.4l-3.8-4.9l1.4-1.5l1.4-1.4l6.5,2c3.6,1.1,6.7,2,6.7,1.9s1-1.7,2.1-3.7l2-3.5l-4.7-4.4c-4.6-4.3-4.6-4.4-3.8-6.1l0.9-1.7l6.1,0.8c8.6,1.2,8,1.3,9.2-2.4c0.6-1.7,1.2-3.5,1.3-3.9s-2-2.2-4.9-4c-2.8-1.9-5.2-3.4-5.4-3.5c-0.1-0.1,0.1-0.9,0.4-1.9c0.6-1.7,0.7-1.7,7.6-2.3l7-0.6l0.4-2.2c1.2-6.7,1.8-5.7-4.8-8.3c-5.7-2.3-5.8-2.4-5.8-4.4v-2l6.1-1.4c3.3-0.7,6.5-1.5,7.1-1.7c0.9-0.2,1-0.9,0.9-4.4l-0.2-4.1l-6.3-1.5l-6.4-1.5v-1.9c0-1.9,0.2-2,6.5-4.6c5.7-2.3,6.5-2.8,6.2-4c-0.1-0.7-0.5-2.6-0.7-4.1l-0.4-2.8l-6.2-0.4c-3.4-0.2-6.4-0.6-6.7-0.7c-0.3-0.2-0.6-1.1-0.6-2c0-1.4,0.8-2.2,5.3-5c2.9-1.8,5.4-3.6,5.6-4c0.1-0.4-0.2-2.2-0.9-4.1c-1.4-3.8-1.2-3.8-9.8-2.8l-4.5,0.5l-0.7-1.7c-0.6-1.7-0.5-2,4.5-6.5l5.1-4.8l-1.5-2.7c-2.8-5.1-2.1-4.9-8.9-2.8c-5.9,1.9-6.1,1.9-6.9,0.7c-0.5-0.6-0.9-1.5-0.9-1.9s1.9-3.1,4.1-6.1l4-5.4l-2.5-3c-1.4-1.7-2.8-3.1-3.2-3.1c-0.3,0-2.9,1.2-5.7,2.8c-2.8,1.5-5.3,2.8-5.4,2.8s-0.8-0.7-1.4-1.5c-1-1.5-0.9-1.7,2.1-7.7l3-6.2l-3.1-2.7l-3.2-2.8l-5.3,4l-5.3,4l-1.4-1.4L193,45l2.1-6.5l2-6.6l-3.3-1.9c-1.9-1-3.6-1.9-3.9-1.9c-0.3,0-2.4,2-4.8,4.6l-4.2,4.6l-1.7-1c-1.3-0.8-1.7-1.4-1.4-2.6c0.2-0.9,0.4-3.2,0.7-5.3c0.2-2,0.5-4.4,0.7-5.3c0.2-1.5,0-1.7-3.2-2.9c-1.9-0.7-3.8-1.4-4.2-1.4c-0.4,0-2.2,2.4-4,5.3c-2.9,4.5-3.5,5.2-4.6,4.8c-2.3-0.7-2.5-1.2-2.8-8c-0.4-7.4,0-6.9-6-7.8l-2.6-0.4l-2.4,5.7c-2.3,5.2-2.6,5.7-4.2,5.7c-2.2,0-2.5-0.6-4.1-7.9l-1.3-6h-4.2h-4.2l-1.5,6.3c-1.4,6.3-1.5,6.4-3.3,6.5c-1.9,0.2-2,0.1-4.6-6.3C119,9.5,119.3,9.8,114,10.8z M116.4,48.4c0,10.9-0.2,14.3-0.7,14.5c-16.1,4.3-25.1,9-34.2,18L77,85.3l-11.7-6.7c-6.4-3.7-11.9-7-12.1-7.2c-0.7-0.7,5.2-7.5,11.1-13C76.5,47.1,92.3,39,109,35.5c3.2-0.7,6.2-1.2,6.7-1.2C116.2,34.2,116.4,37.4,116.4,48.4z M146.6,35.5c20.9,4.3,40.6,16.1,54.2,32.5l2.7,3.2l-12.2,7.1l-12.2,7l-5.1-4.8c-8.9-8.3-18.2-13.6-28.9-16.3l-5.6-1.4l-0.2-11c-0.1-10.6,0.2-17.5,0.9-17.5C140.5,34.2,143.3,34.8,146.6,35.5z M144,72.6c2.8,0.9,5.4,1.9,5.7,2.2c0.7,0.7-7.8,16.2-9,16.2c-0.4-0.1-2.3-0.4-4.4-0.9c-4.8-1.2-12.5-1.2-17.5,0c-2.4,0.6-4.2,0.7-4.6,0.4c-1.3-1.3-9-15.3-8.6-15.6c0.6-0.6,6.6-2.5,10.6-3.4c2.2-0.6,6.7-0.7,13-0.6C137.4,71.1,139.7,71.3,144,72.6z M98.3,90.2l4.4,7.8l-3.6,4c-4,4.3-7.7,11.1-8.9,16.1l-0.7,3.3h-9.4c-7.2,0-9.5-0.2-9.5-0.8c0-0.4,0.6-3.1,1.2-5.9c1.5-6.1,4.9-13.7,8.7-19.3c2.9-4.3,11.2-12.9,12.5-12.9C93.5,82.4,95.8,86,98.3,90.2z M167.5,86.2c5.5,5.3,9.1,10.3,12.3,16.9c2.6,5.3,5.2,13.7,5.2,16.8v1.4h-9.3h-9.2l-0.7-2.7c-1.8-6.9-5-12.7-9.8-17.7c-1.4-1.5-2.6-2.8-2.6-3c0-0.9,8.8-15.6,9.4-15.6C163.1,82.4,165.2,84.1,167.5,86.2z M218,99.4c3.5,11.1,4.3,16.6,4.3,28.7c0,13.3-1.5,22.1-5.9,33.8l-1.2,3.2L203,158c-9-5.1-12.2-7.3-12.1-8.1c0.1-0.6,0.7-3.3,1.5-6.1c1.2-4.3,1.4-6.4,1.4-15.4c0-9.1-0.1-11.2-1.4-15.8c-0.8-2.9-1.5-5.7-1.5-6.4c-0.1-1.4,23.8-15.4,24.5-14.4C215.6,92.3,216.8,95.6,218,99.4z M53.6,98.6l12,6.9l-0.8,2.2c-4,11.4-4.1,27.3-0.1,40.2l0.9,2.8l-11.9,6.9c-6.6,3.8-12.2,6.9-12.5,6.9c-0.7,0-3.3-7.1-4.9-13.6c-2-8-2.5-13-2.5-22.9c0-9.8,0.6-14.9,2.5-22.9c1.6-6.5,4.2-13.6,4.9-13.6C41.4,91.7,47.1,94.8,53.6,98.6z M135.8,95.1c6.4,1.7,11.3,4.4,16.1,9.2c13.5,13.6,13.5,34.1,0,47.7c-10.8,10.8-26.3,13.2-39.9,6.1c-7.9-4.1-14-11.6-16.6-20.3c-1.2-4.1-1.4-5.7-1.1-11.1c0.4-7.2,1.8-11.9,5.2-17c6.4-9.6,16.8-15.3,28.3-15.4C130.2,94.1,133.8,94.6,135.8,95.1z M90.2,138.1c1.2,5,4.9,11.9,8.9,16.1l3.6,4l-4.5,7.8c-2.5,4.3-4.8,7.8-5.2,7.8c-1.2,0-9.6-8.6-12.5-12.9c-3.8-5.6-7.2-13.2-8.7-19.3c-0.7-2.8-1.2-5.6-1.2-6c0-0.6,2.3-0.7,9.5-0.7h9.4L90.2,138.1z M184.9,136.3c0,5.9-5.6,19.2-11,26.4c-3,4-10.2,11.1-11.2,11.1c-0.4,0-9.3-14.8-9.3-15.6c0-0.2,1.2-1.5,2.6-3c4.8-5.1,8-10.9,9.8-17.8l0.7-2.6h9.2h9.3V136.3L184.9,136.3z M119.3,166.1c4.4,1.2,12.4,1.2,17.2,0c2-0.5,4-0.9,4.4-0.9c1.1,0,9.7,15.5,9,16.2c-0.3,0.3-2.9,1.3-5.7,2.1c-6.2,1.9-19.8,2.7-26,1.5c-4-0.8-11.6-3-12.3-3.7c-0.4-0.3,4.8-9.9,7.9-14.8C114.7,164.9,114.7,164.9,119.3,166.1z M90.4,182.7c7.3,4.9,13.5,7.5,25.3,10.6c0.6,0.2,0.7,3.6,0.7,14.5v14.3l-2.3-0.4c-14.9-2.5-27.9-7.7-39.7-15.8c-8.7-6-22.6-19.7-21.3-21.1c0.2-0.2,5.7-3.5,12.2-7.2l11.6-6.8l4.6,4.6C84.1,177.9,88,181.2,90.4,182.7z M203,184.9c0.2,0.2-1.5,2.7-4,5.5c-10.6,12.2-24.5,21.6-39.9,26.9c-6.7,2.3-18.5,5-19.1,4.4c-0.2-0.2-0.4-6.7-0.4-14.3v-14l4.7-1.1c10.6-2.5,21-8.3,29.8-16.6l5-4.8l11.7,6.8C197.2,181.4,202.7,184.6,203,184.9z"/><path fill="#000000" d="M122.9,114.8c-5.3,2-9,7.5-9,13.3c0,4.3,1.5,7.7,4.8,10.6c6.4,5.8,16.7,4.2,21.4-3.5c1.6-2.5,1.9-3.6,1.9-7.2c0-3.6-0.2-4.6-1.9-7.2C136.6,115.2,129.1,112.5,122.9,114.8z"/></g></g></g>
</svg>